<svg width="259" height="327" viewBox="0 0 259 327" fill="none" xmlns="http://www.w3.org/2000/svg">
<path fill-rule="evenodd" clip-rule="evenodd" d="M36.176 190.424C-41.2224 126.354 18.09 26.4601 96.8259 33.2982C119.272 28.2439 138.102 16.2031 151.085 0C156.981 19.2752 153.511 41.8703 143.949 54.0599C168.376 46.0821 161.292 48.7084 183.589 30.3746C191.368 27.5503 208.612 9.26603 219.118 5.59932C232.348 1.04069 248.748 2.92356 258.709 6.73904C243.447 23.6853 234.032 39.9379 233.04 55.4472L258.709 54.9021C240.126 62.3843 227.49 72.4927 221.793 85.6237C221.793 169.315 166.396 195.031 94.9925 191.018L108.371 191.562L69.3253 326.092L25.5224 191.267L36.1264 190.424H36.176ZM119.322 114.214C80.6725 111.39 59.7125 134.134 69.5731 175.113C84.4383 152.071 100.889 131.607 119.322 114.214Z" fill="#0804ff"/>
</svg>
