<svg width="156" height="158" viewBox="0 0 156 158" fill="none" xmlns="http://www.w3.org/2000/svg">
<path d="M141.389 93.6211C141.389 93.6211 141.379 93.6162 141.374 93.6113C130.117 87.1201 130.117 70.8848 141.374 64.3936C141.389 64.3838 141.403 64.374 141.418 64.3642L155.995 55.9555L147.568 41.3735C147.568 41.3735 147.558 41.3539 147.553 41.3442L146.687 39.8473L136.972 23.0347L122.321 31.4875C111.069 37.9493 97.0208 29.8341 97.0208 16.8615C97.0208 16.8615 97.0208 16.8566 97.0208 16.8517V0H58.9743V16.8713C58.9743 29.8488 44.9261 37.9591 33.6738 31.4973L19.0232 23.0445L9.36225 39.7641L8.44169 41.3539C8.44169 41.3539 8.43191 41.3735 8.42702 41.3833L0 55.9604L14.5722 64.3642C14.5722 64.3642 14.6016 64.3838 14.6212 64.3936C25.8784 70.8848 25.8784 87.1201 14.6212 93.6113C14.6163 93.6113 14.6114 93.6162 14.6065 93.6211L0 102.045L19.0232 134.96L33.6542 126.522C44.9114 120.036 58.9743 128.151 58.9743 141.134V158H97.0208V141.139C97.0208 141.139 97.0208 141.134 97.0208 141.129C97.0208 128.146 111.089 120.031 122.346 126.517L136.977 134.955L156 102.04L141.389 93.6113V93.6211ZM78.5362 100.45C66.6816 100.45 57.0696 90.8475 57.0696 79.0049C57.0696 67.1622 66.6816 57.5599 78.5362 57.5599C90.3908 57.5599 100.003 67.1622 100.003 79.0049C100.003 90.8475 90.3908 100.45 78.5362 100.45Z" fill="#FF794C"/>
</svg>
